<!--?xml version="1.0" encoding="utf-8"?-->
<!-- Generator: Adobe Illustrator 18.1.1, SVG Export Plug-In . SVG Version: 6.00 Build 0)  -->

<svg version="1.1" id="_x31_0" xmlns="http://www.w3.org/2000/svg" xmlns:xlink="http://www.w3.org/1999/xlink" x="0px" y="0px" viewBox="0 0 512 512" style="width: 256px; height: 256px; opacity: 1;" xml:space="preserve">
<style type="text/css">
	.st0{fill:#374149;}
</style>
<g>
	<path class="st0" d="M256,113.875c33.078,0,60.89-19.293,68.973-45.414c0.23-0.742,0.504-1.465,0.707-2.219
		c0.031-0.121,0.046-0.25,0.078-0.37c0.426-1.653,0.797-3.325,1.062-5.028h-0.031c0.008-0.054,0.024-0.109,0.031-0.164H202.649
		l-17.309-0.023c0.004,0.008,0.004,0.016,0.004,0.023h-0.161C189.668,90.676,219.707,113.875,256,113.875z" style="fill: rgb(0, 0, 0);"></path>
	<path class="st0" d="M434.25,280.66L512,229.461l-77.75-119.438l-62.567-32.598l-18.335-9.606
		c-0.004,0.019-0.008,0.031-0.012,0.051l-0.145-0.078c-7.93,41.598-48.39,73.27-97.191,73.27c-45.695,0-84.145-27.786-95.278-65.52
		c-0.71-2.476-1.316-4.996-1.793-7.558L158.898,68c-0.012-0.055-0.031-0.106-0.039-0.161l-81.106,42.184L0,229.461l77.754,51.199
		l25.164-27.332l18.469-19.887v217.902h269.23V325.281l0.118-91.886L434.25,280.66z" style="fill: rgb(0, 0, 0);"></path>
</g>
</svg>
